<mxfile host="app.diagrams.net" modified="2023-07-05T17:34:48.954Z" agent="Mozilla/5.0 (Windows NT 10.0; Win64; x64) AppleWebKit/537.36 (KHTML, like Gecko) Chrome/114.0.0.0 Safari/537.36" etag="q5Jec2cEjeUx0NW3vTAe" version="21.6.1" type="device">
  <diagram id="paF6YQ2i-V6QRX9dfae7" name="Page-1">
    <mxGraphModel dx="1603" dy="826" grid="1" gridSize="10" guides="1" tooltips="1" connect="1" arrows="1" fold="1" page="1" pageScale="1" pageWidth="1169" pageHeight="827" math="0" shadow="0">
      <root>
        <mxCell id="0" />
        <mxCell id="1" parent="0" />
        <mxCell id="eyDXWGFDGW_XnUvpQX0K-29" style="edgeStyle=orthogonalEdgeStyle;rounded=0;orthogonalLoop=1;jettySize=auto;html=1;entryX=1;entryY=0.5;entryDx=0;entryDy=0;entryPerimeter=0;" edge="1" parent="1" source="P3LnugzHq6Kd_qjz9YZf-50" target="787doy9NoyU9D87VZDhD-17">
          <mxGeometry relative="1" as="geometry" />
        </mxCell>
        <mxCell id="P3LnugzHq6Kd_qjz9YZf-50" value="" style="rounded=1;whiteSpace=wrap;html=1;fillColor=none;rotation=0;" parent="1" vertex="1">
          <mxGeometry x="919" y="120" width="200" height="120" as="geometry" />
        </mxCell>
        <mxCell id="eyDXWGFDGW_XnUvpQX0K-28" style="edgeStyle=orthogonalEdgeStyle;rounded=0;orthogonalLoop=1;jettySize=auto;html=1;entryX=0.5;entryY=1;entryDx=0;entryDy=0;" edge="1" parent="1" source="P3LnugzHq6Kd_qjz9YZf-47" target="P3LnugzHq6Kd_qjz9YZf-50">
          <mxGeometry relative="1" as="geometry" />
        </mxCell>
        <mxCell id="P3LnugzHq6Kd_qjz9YZf-47" value="" style="rounded=1;whiteSpace=wrap;html=1;fillColor=none;rotation=0;" parent="1" vertex="1">
          <mxGeometry x="918.77" y="280.5" width="200" height="119.5" as="geometry" />
        </mxCell>
        <mxCell id="P3LnugzHq6Kd_qjz9YZf-15" value="Public subnet" style="points=[[0,0],[0.25,0],[0.5,0],[0.75,0],[1,0],[1,0.25],[1,0.5],[1,0.75],[1,1],[0.75,1],[0.5,1],[0.25,1],[0,1],[0,0.75],[0,0.5],[0,0.25]];outlineConnect=0;gradientColor=none;html=1;whiteSpace=wrap;fontSize=12;fontStyle=0;container=1;pointerEvents=0;collapsible=0;recursiveResize=0;shape=mxgraph.aws4.group;grIcon=mxgraph.aws4.group_security_group;grStroke=0;strokeColor=#248814;fillColor=#E9F3E6;verticalAlign=top;align=left;spacingLeft=30;fontColor=#248814;dashed=0;rotation=0;" parent="1" vertex="1">
          <mxGeometry x="280" y="481" width="319.5" height="119" as="geometry" />
        </mxCell>
        <mxCell id="P3LnugzHq6Kd_qjz9YZf-19" value="&lt;b&gt;Amazon EC2&lt;/b&gt;" style="text;html=1;strokeColor=none;fillColor=none;align=center;verticalAlign=middle;whiteSpace=wrap;rounded=0;" parent="1" vertex="1">
          <mxGeometry x="487.5" y="558.5" width="113.5" height="30" as="geometry" />
        </mxCell>
        <mxCell id="kEIAtn397vdBtJ0K74f4-1" value="AWS Cloud" style="points=[[0,0],[0.25,0],[0.5,0],[0.75,0],[1,0],[1,0.25],[1,0.5],[1,0.75],[1,1],[0.75,1],[0.5,1],[0.25,1],[0,1],[0,0.75],[0,0.5],[0,0.25]];outlineConnect=0;gradientColor=none;html=1;whiteSpace=wrap;fontSize=12;fontStyle=0;container=1;pointerEvents=0;collapsible=0;recursiveResize=0;shape=mxgraph.aws4.group;grIcon=mxgraph.aws4.group_aws_cloud_alt;strokeColor=#232F3E;fillColor=none;verticalAlign=top;align=left;spacingLeft=30;fontColor=#232F3E;dashed=0;" parent="1" vertex="1">
          <mxGeometry x="80" y="40" width="800" height="680" as="geometry" />
        </mxCell>
        <mxCell id="787doy9NoyU9D87VZDhD-17" value="" style="sketch=0;points=[[0,0,0],[0.25,0,0],[0.5,0,0],[0.75,0,0],[1,0,0],[0,1,0],[0.25,1,0],[0.5,1,0],[0.75,1,0],[1,1,0],[0,0.25,0],[0,0.5,0],[0,0.75,0],[1,0.25,0],[1,0.5,0],[1,0.75,0]];outlineConnect=0;fontColor=#232F3E;gradientColor=#60A337;gradientDirection=north;fillColor=#277116;strokeColor=#ffffff;dashed=0;verticalLabelPosition=bottom;verticalAlign=top;align=center;html=1;fontSize=12;fontStyle=0;aspect=fixed;shape=mxgraph.aws4.resourceIcon;resIcon=mxgraph.aws4.s3;" parent="kEIAtn397vdBtJ0K74f4-1" vertex="1">
          <mxGeometry x="370" y="30" width="55" height="55" as="geometry" />
        </mxCell>
        <mxCell id="787doy9NoyU9D87VZDhD-60" value="&lt;b&gt;Amazon S3&lt;/b&gt;" style="text;html=1;strokeColor=none;fillColor=none;align=center;verticalAlign=middle;whiteSpace=wrap;rounded=0;" parent="kEIAtn397vdBtJ0K74f4-1" vertex="1">
          <mxGeometry x="350" y="85" width="100" height="30" as="geometry" />
        </mxCell>
        <mxCell id="b87ZAK8lSTTPDpUrN3-H-11" value="&lt;b&gt;CloudFront&lt;/b&gt;" style="text;html=1;strokeColor=none;fillColor=none;align=center;verticalAlign=middle;whiteSpace=wrap;rounded=0;" parent="kEIAtn397vdBtJ0K74f4-1" vertex="1">
          <mxGeometry x="5.25" y="440" width="73.5" height="30" as="geometry" />
        </mxCell>
        <mxCell id="eyDXWGFDGW_XnUvpQX0K-3" style="edgeStyle=orthogonalEdgeStyle;rounded=0;orthogonalLoop=1;jettySize=auto;html=1;entryX=0;entryY=0.5;entryDx=0;entryDy=0;entryPerimeter=0;" edge="1" parent="kEIAtn397vdBtJ0K74f4-1" source="b87ZAK8lSTTPDpUrN3-H-1" target="787doy9NoyU9D87VZDhD-17">
          <mxGeometry relative="1" as="geometry">
            <Array as="points">
              <mxPoint x="40" y="58" />
            </Array>
          </mxGeometry>
        </mxCell>
        <mxCell id="eyDXWGFDGW_XnUvpQX0K-9" style="edgeStyle=orthogonalEdgeStyle;rounded=0;orthogonalLoop=1;jettySize=auto;html=1;" edge="1" parent="kEIAtn397vdBtJ0K74f4-1" source="b87ZAK8lSTTPDpUrN3-H-1" target="kEIAtn397vdBtJ0K74f4-14">
          <mxGeometry relative="1" as="geometry" />
        </mxCell>
        <mxCell id="b87ZAK8lSTTPDpUrN3-H-1" value="" style="sketch=0;points=[[0,0,0],[0.25,0,0],[0.5,0,0],[0.75,0,0],[1,0,0],[0,1,0],[0.25,1,0],[0.5,1,0],[0.75,1,0],[1,1,0],[0,0.25,0],[0,0.5,0],[0,0.75,0],[1,0.25,0],[1,0.5,0],[1,0.75,0]];outlineConnect=0;fontColor=#232F3E;gradientColor=#945DF2;gradientDirection=north;fillColor=#5A30B5;strokeColor=#ffffff;dashed=0;verticalLabelPosition=bottom;verticalAlign=top;align=center;html=1;fontSize=12;fontStyle=0;aspect=fixed;shape=mxgraph.aws4.resourceIcon;resIcon=mxgraph.aws4.cloudfront;rotation=0;" parent="kEIAtn397vdBtJ0K74f4-1" vertex="1">
          <mxGeometry x="12.75" y="370" width="55" height="55" as="geometry" />
        </mxCell>
        <mxCell id="787doy9NoyU9D87VZDhD-78" value="" style="sketch=0;points=[[0,0,0],[0.25,0,0],[0.5,0,0],[0.75,0,0],[1,0,0],[0,1,0],[0.25,1,0],[0.5,1,0],[0.75,1,0],[1,1,0],[0,0.25,0],[0,0.5,0],[0,0.75,0],[1,0.25,0],[1,0.5,0],[1,0.75,0]];outlineConnect=0;fontColor=#232F3E;gradientColor=#F54749;gradientDirection=north;fillColor=#C7131F;strokeColor=#ffffff;dashed=0;verticalLabelPosition=bottom;verticalAlign=top;align=center;html=1;fontSize=12;fontStyle=0;aspect=fixed;shape=mxgraph.aws4.resourceIcon;resIcon=mxgraph.aws4.certificate_manager_3;" parent="kEIAtn397vdBtJ0K74f4-1" vertex="1">
          <mxGeometry x="10.75" y="580" width="55" height="55" as="geometry" />
        </mxCell>
        <mxCell id="787doy9NoyU9D87VZDhD-81" value="&lt;b&gt;Certificate&lt;br&gt;Manager&lt;/b&gt;" style="text;html=1;strokeColor=none;fillColor=none;align=center;verticalAlign=middle;whiteSpace=wrap;rounded=0;" parent="kEIAtn397vdBtJ0K74f4-1" vertex="1">
          <mxGeometry x="4.75" y="635" width="64.75" height="34" as="geometry" />
        </mxCell>
        <mxCell id="787doy9NoyU9D87VZDhD-18" value="" style="sketch=0;points=[[0,0,0],[0.25,0,0],[0.5,0,0],[0.75,0,0],[1,0,0],[0,1,0],[0.25,1,0],[0.5,1,0],[0.75,1,0],[1,1,0],[0,0.25,0],[0,0.5,0],[0,0.75,0],[1,0.25,0],[1,0.5,0],[1,0.75,0]];outlineConnect=0;fontColor=#232F3E;gradientColor=#945DF2;gradientDirection=north;fillColor=#5A30B5;strokeColor=#ffffff;dashed=0;verticalLabelPosition=bottom;verticalAlign=top;align=center;html=1;fontSize=12;fontStyle=0;aspect=fixed;shape=mxgraph.aws4.resourceIcon;resIcon=mxgraph.aws4.route_53;" parent="kEIAtn397vdBtJ0K74f4-1" vertex="1">
          <mxGeometry x="10.75" y="480" width="55" height="55" as="geometry" />
        </mxCell>
        <mxCell id="787doy9NoyU9D87VZDhD-63" value="&lt;b&gt;Route 53&lt;/b&gt;" style="text;html=1;strokeColor=none;fillColor=none;align=center;verticalAlign=middle;whiteSpace=wrap;rounded=0;" parent="kEIAtn397vdBtJ0K74f4-1" vertex="1">
          <mxGeometry x="9.879999999999999" y="535" width="59.62" height="30" as="geometry" />
        </mxCell>
        <mxCell id="kEIAtn397vdBtJ0K74f4-3" value="Region" style="points=[[0,0],[0.25,0],[0.5,0],[0.75,0],[1,0],[1,0.25],[1,0.5],[1,0.75],[1,1],[0.75,1],[0.5,1],[0.25,1],[0,1],[0,0.75],[0,0.5],[0,0.25]];outlineConnect=0;gradientColor=none;html=1;whiteSpace=wrap;fontSize=12;fontStyle=0;container=1;pointerEvents=0;collapsible=0;recursiveResize=0;shape=mxgraph.aws4.group;grIcon=mxgraph.aws4.group_region;strokeColor=#147EBA;fillColor=none;verticalAlign=top;align=left;spacingLeft=30;fontColor=#147EBA;dashed=1;" parent="kEIAtn397vdBtJ0K74f4-1" vertex="1">
          <mxGeometry x="78.75" y="120" width="680" height="520" as="geometry" />
        </mxCell>
        <mxCell id="kEIAtn397vdBtJ0K74f4-2" value="VPC" style="points=[[0,0],[0.25,0],[0.5,0],[0.75,0],[1,0],[1,0.25],[1,0.5],[1,0.75],[1,1],[0.75,1],[0.5,1],[0.25,1],[0,1],[0,0.75],[0,0.5],[0,0.25]];outlineConnect=0;gradientColor=none;html=1;whiteSpace=wrap;fontSize=12;fontStyle=0;container=1;pointerEvents=0;collapsible=0;recursiveResize=0;shape=mxgraph.aws4.group;grIcon=mxgraph.aws4.group_vpc;strokeColor=#248814;fillColor=none;verticalAlign=top;align=left;spacingLeft=30;fontColor=#AAB7B8;dashed=0;" parent="kEIAtn397vdBtJ0K74f4-3" vertex="1">
          <mxGeometry x="39.5" y="39" width="600.5" height="441" as="geometry" />
        </mxCell>
        <mxCell id="kEIAtn397vdBtJ0K74f4-13" value="Public subnet" style="points=[[0,0],[0.25,0],[0.5,0],[0.75,0],[1,0],[1,0.25],[1,0.5],[1,0.75],[1,1],[0.75,1],[0.5,1],[0.25,1],[0,1],[0,0.75],[0,0.5],[0,0.25]];outlineConnect=0;gradientColor=none;html=1;whiteSpace=wrap;fontSize=12;fontStyle=0;container=1;pointerEvents=0;collapsible=0;recursiveResize=0;shape=mxgraph.aws4.group;grIcon=mxgraph.aws4.group_security_group;grStroke=0;strokeColor=#248814;fillColor=#E9F3E6;verticalAlign=top;align=left;spacingLeft=30;fontColor=#248814;dashed=0;rotation=0;" parent="kEIAtn397vdBtJ0K74f4-2" vertex="1">
          <mxGeometry x="80.5" y="81" width="319.5" height="122.5" as="geometry" />
        </mxCell>
        <mxCell id="787doy9NoyU9D87VZDhD-65" value="&lt;b&gt;Amazon EC2&lt;/b&gt;" style="text;html=1;strokeColor=none;fillColor=none;align=center;verticalAlign=middle;whiteSpace=wrap;rounded=0;" parent="kEIAtn397vdBtJ0K74f4-13" vertex="1">
          <mxGeometry x="208" y="92.5" width="113.5" height="30" as="geometry" />
        </mxCell>
        <mxCell id="787doy9NoyU9D87VZDhD-12" value="" style="sketch=0;points=[[0,0,0],[0.25,0,0],[0.5,0,0],[0.75,0,0],[1,0,0],[0,1,0],[0.25,1,0],[0.5,1,0],[0.75,1,0],[1,1,0],[0,0.25,0],[0,0.5,0],[0,0.75,0],[1,0.25,0],[1,0.5,0],[1,0.75,0]];outlineConnect=0;fontColor=#232F3E;gradientColor=#F78E04;gradientDirection=north;fillColor=#D05C17;strokeColor=#ffffff;dashed=0;verticalLabelPosition=bottom;verticalAlign=top;align=center;html=1;fontSize=12;fontStyle=0;aspect=fixed;shape=mxgraph.aws4.resourceIcon;resIcon=mxgraph.aws4.ec2;" parent="kEIAtn397vdBtJ0K74f4-13" vertex="1">
          <mxGeometry x="237.25" y="37.5" width="55" height="55" as="geometry" />
        </mxCell>
        <mxCell id="kEIAtn397vdBtJ0K74f4-12" value="Private subnet" style="points=[[0,0],[0.25,0],[0.5,0],[0.75,0],[1,0],[1,0.25],[1,0.5],[1,0.75],[1,1],[0.75,1],[0.5,1],[0.25,1],[0,1],[0,0.75],[0,0.5],[0,0.25]];outlineConnect=0;gradientColor=none;html=1;whiteSpace=wrap;fontSize=12;fontStyle=0;container=1;pointerEvents=0;collapsible=0;recursiveResize=0;shape=mxgraph.aws4.group;grIcon=mxgraph.aws4.group_security_group;grStroke=0;strokeColor=#147EBA;fillColor=#E6F2F8;verticalAlign=top;align=left;spacingLeft=30;fontColor=#147EBA;dashed=0;" parent="kEIAtn397vdBtJ0K74f4-2" vertex="1">
          <mxGeometry x="440.5" y="81" width="119.5" height="119" as="geometry" />
        </mxCell>
        <mxCell id="787doy9NoyU9D87VZDhD-61" value="&lt;b&gt;Amazon RDS&lt;/b&gt;" style="text;html=1;strokeColor=none;fillColor=none;align=center;verticalAlign=middle;whiteSpace=wrap;rounded=0;" parent="kEIAtn397vdBtJ0K74f4-12" vertex="1">
          <mxGeometry x="10.75" y="95" width="113.5" height="30" as="geometry" />
        </mxCell>
        <mxCell id="787doy9NoyU9D87VZDhD-13" value="" style="sketch=0;points=[[0,0,0],[0.25,0,0],[0.5,0,0],[0.75,0,0],[1,0,0],[0,1,0],[0.25,1,0],[0.5,1,0],[0.75,1,0],[1,1,0],[0,0.25,0],[0,0.5,0],[0,0.75,0],[1,0.25,0],[1,0.5,0],[1,0.75,0]];outlineConnect=0;fontColor=#232F3E;gradientColor=#4D72F3;gradientDirection=north;fillColor=#3334B9;strokeColor=#ffffff;dashed=0;verticalLabelPosition=bottom;verticalAlign=top;align=center;html=1;fontSize=12;fontStyle=0;aspect=fixed;shape=mxgraph.aws4.resourceIcon;resIcon=mxgraph.aws4.rds;" parent="kEIAtn397vdBtJ0K74f4-12" vertex="1">
          <mxGeometry x="37.5" y="37.5" width="55" height="55" as="geometry" />
        </mxCell>
        <mxCell id="eyDXWGFDGW_XnUvpQX0K-11" style="edgeStyle=orthogonalEdgeStyle;rounded=0;orthogonalLoop=1;jettySize=auto;html=1;entryX=0;entryY=0.5;entryDx=0;entryDy=0;entryPerimeter=0;" edge="1" parent="kEIAtn397vdBtJ0K74f4-2" source="kEIAtn397vdBtJ0K74f4-14" target="b87ZAK8lSTTPDpUrN3-H-22">
          <mxGeometry relative="1" as="geometry" />
        </mxCell>
        <mxCell id="kEIAtn397vdBtJ0K74f4-14" value="" style="sketch=0;outlineConnect=0;fontColor=#232F3E;gradientColor=none;fillColor=#4D27AA;strokeColor=none;dashed=0;verticalLabelPosition=bottom;verticalAlign=top;align=center;html=1;fontSize=12;fontStyle=0;aspect=fixed;pointerEvents=1;shape=mxgraph.aws4.internet_gateway;" parent="kEIAtn397vdBtJ0K74f4-2" vertex="1">
          <mxGeometry x="-26.5" y="211" width="55" height="55" as="geometry" />
        </mxCell>
        <mxCell id="787doy9NoyU9D87VZDhD-72" value="&lt;b&gt;Internet&lt;br&gt;Gateway&lt;/b&gt;" style="text;html=1;strokeColor=none;fillColor=none;align=center;verticalAlign=middle;whiteSpace=wrap;rounded=0;" parent="kEIAtn397vdBtJ0K74f4-2" vertex="1">
          <mxGeometry x="-33.25" y="281" width="68.5" height="30" as="geometry" />
        </mxCell>
        <mxCell id="eyDXWGFDGW_XnUvpQX0K-14" style="edgeStyle=orthogonalEdgeStyle;rounded=0;orthogonalLoop=1;jettySize=auto;html=1;entryX=0;entryY=0.5;entryDx=0;entryDy=0;entryPerimeter=0;" edge="1" parent="kEIAtn397vdBtJ0K74f4-2" source="b87ZAK8lSTTPDpUrN3-H-22" target="787doy9NoyU9D87VZDhD-12">
          <mxGeometry relative="1" as="geometry" />
        </mxCell>
        <mxCell id="b87ZAK8lSTTPDpUrN3-H-22" value="" style="sketch=0;points=[[0,0,0],[0.25,0,0],[0.5,0,0],[0.75,0,0],[1,0,0],[0,1,0],[0.25,1,0],[0.5,1,0],[0.75,1,0],[1,1,0],[0,0.25,0],[0,0.5,0],[0,0.75,0],[1,0.25,0],[1,0.5,0],[1,0.75,0]];outlineConnect=0;fontColor=#232F3E;gradientColor=#945DF2;gradientDirection=north;fillColor=#5A30B5;strokeColor=#ffffff;dashed=0;verticalLabelPosition=bottom;verticalAlign=top;align=center;html=1;fontSize=12;fontStyle=0;aspect=fixed;shape=mxgraph.aws4.resourceIcon;resIcon=mxgraph.aws4.elastic_load_balancing;rotation=0;" parent="kEIAtn397vdBtJ0K74f4-2" vertex="1">
          <mxGeometry x="152.25" y="211" width="55" height="55" as="geometry" />
        </mxCell>
        <mxCell id="eyDXWGFDGW_XnUvpQX0K-19" value="" style="edgeStyle=orthogonalEdgeStyle;rounded=0;orthogonalLoop=1;jettySize=auto;html=1;" edge="1" parent="kEIAtn397vdBtJ0K74f4-2" source="787doy9NoyU9D87VZDhD-12" target="787doy9NoyU9D87VZDhD-13">
          <mxGeometry relative="1" as="geometry" />
        </mxCell>
        <mxCell id="P3LnugzHq6Kd_qjz9YZf-21" value="Security group" style="fillColor=none;strokeColor=#DD3522;verticalAlign=top;fontStyle=0;fontColor=#DD3522;whiteSpace=wrap;html=1;rotation=0;" parent="kEIAtn397vdBtJ0K74f4-2" vertex="1">
          <mxGeometry x="281.5" y="42" width="118.5" height="361" as="geometry" />
        </mxCell>
        <mxCell id="P3LnugzHq6Kd_qjz9YZf-22" value="Security group" style="fillColor=none;strokeColor=#DD3522;verticalAlign=top;fontStyle=0;fontColor=#DD3522;whiteSpace=wrap;html=1;rotation=0;" parent="kEIAtn397vdBtJ0K74f4-2" vertex="1">
          <mxGeometry x="120.5" y="42" width="118.5" height="361" as="geometry" />
        </mxCell>
        <mxCell id="P3LnugzHq6Kd_qjz9YZf-23" value="Availability Zone" style="fillColor=none;strokeColor=#147EBA;dashed=1;verticalAlign=top;fontStyle=0;fontColor=#147EBA;whiteSpace=wrap;html=1;" parent="kEIAtn397vdBtJ0K74f4-2" vertex="1">
          <mxGeometry x="60.5" y="71" width="519.5" height="140" as="geometry" />
        </mxCell>
        <mxCell id="kEIAtn397vdBtJ0K74f4-9" value="Availability Zone" style="fillColor=none;strokeColor=#147EBA;dashed=1;verticalAlign=top;fontStyle=0;fontColor=#147EBA;whiteSpace=wrap;html=1;" parent="kEIAtn397vdBtJ0K74f4-2" vertex="1">
          <mxGeometry x="60.5" y="270" width="519.5" height="140" as="geometry" />
        </mxCell>
        <mxCell id="eyDXWGFDGW_XnUvpQX0K-23" value="Security group" style="fillColor=none;strokeColor=#DD3522;verticalAlign=top;fontStyle=0;fontColor=#DD3522;whiteSpace=wrap;html=1;rotation=0;" vertex="1" parent="kEIAtn397vdBtJ0K74f4-2">
          <mxGeometry x="441.5" y="42" width="118.5" height="361" as="geometry" />
        </mxCell>
        <mxCell id="eyDXWGFDGW_XnUvpQX0K-4" value="" style="edgeStyle=orthogonalEdgeStyle;rounded=0;orthogonalLoop=1;jettySize=auto;html=1;" edge="1" parent="1" source="787doy9NoyU9D87VZDhD-16" target="b87ZAK8lSTTPDpUrN3-H-1">
          <mxGeometry relative="1" as="geometry" />
        </mxCell>
        <mxCell id="787doy9NoyU9D87VZDhD-16" value="" style="sketch=0;outlineConnect=0;fontColor=#232F3E;gradientColor=none;fillColor=#232F3D;strokeColor=none;dashed=0;verticalLabelPosition=bottom;verticalAlign=top;align=center;html=1;fontSize=12;fontStyle=0;aspect=fixed;pointerEvents=1;shape=mxgraph.aws4.users;" parent="1" vertex="1">
          <mxGeometry x="12.870000000000001" y="410" width="55" height="55" as="geometry" />
        </mxCell>
        <mxCell id="P3LnugzHq6Kd_qjz9YZf-16" value="Private subnet" style="points=[[0,0],[0.25,0],[0.5,0],[0.75,0],[1,0],[1,0.25],[1,0.5],[1,0.75],[1,1],[0.75,1],[0.5,1],[0.25,1],[0,1],[0,0.75],[0,0.5],[0,0.25]];outlineConnect=0;gradientColor=none;html=1;whiteSpace=wrap;fontSize=12;fontStyle=0;container=1;pointerEvents=0;collapsible=0;recursiveResize=0;shape=mxgraph.aws4.group;grIcon=mxgraph.aws4.group_security_group;grStroke=0;strokeColor=#147EBA;fillColor=#E6F2F8;verticalAlign=top;align=left;spacingLeft=30;fontColor=#147EBA;dashed=0;" parent="1" vertex="1">
          <mxGeometry x="640" y="481" width="119.5" height="120" as="geometry" />
        </mxCell>
        <mxCell id="P3LnugzHq6Kd_qjz9YZf-18" value="&lt;b&gt;Amazon RDS&lt;/b&gt;" style="text;html=1;strokeColor=none;fillColor=none;align=center;verticalAlign=middle;whiteSpace=wrap;rounded=0;" parent="P3LnugzHq6Kd_qjz9YZf-16" vertex="1">
          <mxGeometry x="11.75" y="95" width="113.5" height="30" as="geometry" />
        </mxCell>
        <mxCell id="P3LnugzHq6Kd_qjz9YZf-17" value="" style="sketch=0;points=[[0,0,0],[0.25,0,0],[0.5,0,0],[0.75,0,0],[1,0,0],[0,1,0],[0.25,1,0],[0.5,1,0],[0.75,1,0],[1,1,0],[0,0.25,0],[0,0.5,0],[0,0.75,0],[1,0.25,0],[1,0.5,0],[1,0.75,0]];outlineConnect=0;fontColor=#232F3E;gradientColor=#4D72F3;gradientDirection=north;fillColor=#3334B9;strokeColor=#ffffff;dashed=0;verticalLabelPosition=bottom;verticalAlign=top;align=center;html=1;fontSize=12;fontStyle=0;aspect=fixed;shape=mxgraph.aws4.resourceIcon;resIcon=mxgraph.aws4.rds;" parent="P3LnugzHq6Kd_qjz9YZf-16" vertex="1">
          <mxGeometry x="38.5" y="37.5" width="55" height="55" as="geometry" />
        </mxCell>
        <mxCell id="787doy9NoyU9D87VZDhD-74" value="&lt;b&gt;User&lt;/b&gt;" style="text;html=1;strokeColor=none;fillColor=none;align=center;verticalAlign=middle;whiteSpace=wrap;rounded=0;" parent="1" vertex="1">
          <mxGeometry x="12.870000000000001" y="481" width="49.25" height="30" as="geometry" />
        </mxCell>
        <mxCell id="eyDXWGFDGW_XnUvpQX0K-25" style="edgeStyle=orthogonalEdgeStyle;rounded=0;orthogonalLoop=1;jettySize=auto;html=1;" edge="1" parent="1" source="P3LnugzHq6Kd_qjz9YZf-30" target="eyDXWGFDGW_XnUvpQX0K-1">
          <mxGeometry relative="1" as="geometry" />
        </mxCell>
        <mxCell id="eyDXWGFDGW_XnUvpQX0K-27" style="edgeStyle=orthogonalEdgeStyle;rounded=0;orthogonalLoop=1;jettySize=auto;html=1;entryX=0.931;entryY=1.294;entryDx=0;entryDy=0;entryPerimeter=0;" edge="1" parent="1" source="P3LnugzHq6Kd_qjz9YZf-30" target="P3LnugzHq6Kd_qjz9YZf-43">
          <mxGeometry relative="1" as="geometry" />
        </mxCell>
        <mxCell id="P3LnugzHq6Kd_qjz9YZf-30" value="" style="rounded=1;whiteSpace=wrap;html=1;fillColor=none;rotation=0;" parent="1" vertex="1">
          <mxGeometry x="920" y="438.5" width="200" height="121.5" as="geometry" />
        </mxCell>
        <mxCell id="P3LnugzHq6Kd_qjz9YZf-32" value="" style="image;sketch=0;aspect=fixed;html=1;points=[];align=center;fontSize=12;image=img/lib/mscae/Docker.svg;" parent="1" vertex="1">
          <mxGeometry x="943.9300000000001" y="480" width="67.08" height="55" as="geometry" />
        </mxCell>
        <mxCell id="P3LnugzHq6Kd_qjz9YZf-33" value="" style="dashed=0;outlineConnect=0;html=1;align=center;labelPosition=center;verticalLabelPosition=bottom;verticalAlign=top;shape=mxgraph.weblogos.github" parent="1" vertex="1">
          <mxGeometry x="943.22" y="310" width="55" height="55" as="geometry" />
        </mxCell>
        <mxCell id="P3LnugzHq6Kd_qjz9YZf-40" value="&lt;b&gt;ローカル開発環境&lt;/b&gt;" style="text;html=1;strokeColor=none;fillColor=none;align=center;verticalAlign=middle;whiteSpace=wrap;rounded=0;" parent="1" vertex="1">
          <mxGeometry x="927.47" y="438.5" width="100" height="30" as="geometry" />
        </mxCell>
        <mxCell id="P3LnugzHq6Kd_qjz9YZf-43" value="&lt;b&gt;Github&lt;/b&gt;" style="text;html=1;strokeColor=none;fillColor=none;align=center;verticalAlign=middle;whiteSpace=wrap;rounded=0;" parent="1" vertex="1">
          <mxGeometry x="913.97" y="365" width="113.5" height="30" as="geometry" />
        </mxCell>
        <mxCell id="P3LnugzHq6Kd_qjz9YZf-49" value="&lt;b&gt;GitActions&lt;/b&gt;" style="text;html=1;strokeColor=none;fillColor=none;align=center;verticalAlign=middle;whiteSpace=wrap;rounded=0;" parent="1" vertex="1">
          <mxGeometry x="913" y="194" width="113.5" height="30" as="geometry" />
        </mxCell>
        <mxCell id="eyDXWGFDGW_XnUvpQX0K-26" style="edgeStyle=orthogonalEdgeStyle;rounded=0;orthogonalLoop=1;jettySize=auto;html=1;" edge="1" parent="1" source="eyDXWGFDGW_XnUvpQX0K-1" target="kEIAtn397vdBtJ0K74f4-1">
          <mxGeometry relative="1" as="geometry" />
        </mxCell>
        <mxCell id="eyDXWGFDGW_XnUvpQX0K-1" value="" style="rounded=1;whiteSpace=wrap;html=1;fillColor=none;rotation=0;" vertex="1" parent="1">
          <mxGeometry x="920" y="600" width="200" height="120" as="geometry" />
        </mxCell>
        <mxCell id="eyDXWGFDGW_XnUvpQX0K-2" value="&lt;b&gt;Terrafom&lt;/b&gt;" style="text;html=1;strokeColor=none;fillColor=none;align=center;verticalAlign=middle;whiteSpace=wrap;rounded=0;" vertex="1" parent="1">
          <mxGeometry x="914" y="674" width="113.5" height="30" as="geometry" />
        </mxCell>
        <mxCell id="eyDXWGFDGW_XnUvpQX0K-20" style="edgeStyle=orthogonalEdgeStyle;rounded=0;orthogonalLoop=1;jettySize=auto;html=1;entryX=0;entryY=0.5;entryDx=0;entryDy=0;entryPerimeter=0;" edge="1" parent="1" source="P3LnugzHq6Kd_qjz9YZf-20" target="787doy9NoyU9D87VZDhD-13">
          <mxGeometry relative="1" as="geometry" />
        </mxCell>
        <mxCell id="P3LnugzHq6Kd_qjz9YZf-20" value="" style="sketch=0;points=[[0,0,0],[0.25,0,0],[0.5,0,0],[0.75,0,0],[1,0,0],[0,1,0],[0.25,1,0],[0.5,1,0],[0.75,1,0],[1,1,0],[0,0.25,0],[0,0.5,0],[0,0.75,0],[1,0.25,0],[1,0.5,0],[1,0.75,0]];outlineConnect=0;fontColor=#232F3E;gradientColor=#F78E04;gradientDirection=north;fillColor=#D05C17;strokeColor=#ffffff;dashed=0;verticalLabelPosition=bottom;verticalAlign=top;align=center;html=1;fontSize=12;fontStyle=0;aspect=fixed;shape=mxgraph.aws4.resourceIcon;resIcon=mxgraph.aws4.ec2;" parent="1" vertex="1">
          <mxGeometry x="515.75" y="503.5" width="55" height="55" as="geometry" />
        </mxCell>
        <mxCell id="eyDXWGFDGW_XnUvpQX0K-15" style="edgeStyle=orthogonalEdgeStyle;rounded=0;orthogonalLoop=1;jettySize=auto;html=1;entryX=0;entryY=0.5;entryDx=0;entryDy=0;entryPerimeter=0;" edge="1" parent="1" source="b87ZAK8lSTTPDpUrN3-H-22" target="P3LnugzHq6Kd_qjz9YZf-20">
          <mxGeometry relative="1" as="geometry" />
        </mxCell>
        <mxCell id="eyDXWGFDGW_XnUvpQX0K-21" style="edgeStyle=orthogonalEdgeStyle;rounded=0;orthogonalLoop=1;jettySize=auto;html=1;" edge="1" parent="1" source="787doy9NoyU9D87VZDhD-61" target="P3LnugzHq6Kd_qjz9YZf-17">
          <mxGeometry relative="1" as="geometry" />
        </mxCell>
        <mxCell id="eyDXWGFDGW_XnUvpQX0K-30" style="edgeStyle=orthogonalEdgeStyle;rounded=0;orthogonalLoop=1;jettySize=auto;html=1;entryX=0.561;entryY=0.357;entryDx=0;entryDy=0;entryPerimeter=0;" edge="1" parent="1" source="P3LnugzHq6Kd_qjz9YZf-50" target="P3LnugzHq6Kd_qjz9YZf-23">
          <mxGeometry relative="1" as="geometry" />
        </mxCell>
      </root>
    </mxGraphModel>
  </diagram>
</mxfile>
